<svg xmlns="http://www.w3.org/2000/svg" viewBox="0 0 100 100"><path fill="#E64B3F" d="M2 2h96v96H2z"/><path fill="#973732" d="M60.491 30.755c-.84-.84-1.96-1.31-3.15-1.31s-2.31.47-3.15 1.31l-3.7 3.7 17.08 17.07L98 81.954v-13.7l-26.729-26.73-10.78-10.77zM49.081 35.865l-15.23 15.23 17.07 17.07L80.765 98H98V84.794l-31.849-31.85zM28.741 56.205c-.84.84-1.31 1.96-1.31 3.15s.47 2.31 1.31 3.15L64.236 98h13.7L32.441 52.505l-3.7 3.7z"/><path fill="#FFF" d="M28.741 56.205c-.84.84-1.31 1.96-1.31 3.15s.47 2.31 1.31 3.15l7.75 7.75a1 1 0 0 0 .71.3h10.93c.26 0 .52-.11.7-.3l.679-.679-17.07-17.07-3.699 3.699zM33.854 51.092l17.07 17.07 15.228-15.22-17.074-17.074-15.224 15.224zm25.175-.272a1 1 0 0 1 0 1.415l-8.81 8.807a.997.997 0 0 1-1.413 0 1 1 0 0 1 0-1.414l8.81-8.808a1 1 0 0 1 1.413 0zm-3.914-3.914a1 1 0 0 1 0 1.414l-8.81 8.808a.997.997 0 0 1-1.414 0 1 1 0 0 1 0-1.414l8.81-8.808a1 1 0 0 1 1.414 0zM51.2 42.991a1 1 0 0 1 0 1.414l-8.81 8.808a.997.997 0 0 1-1.414 0 1 1 0 0 1 0-1.415l8.81-8.807a1 1 0 0 1 1.414 0zM71.271 41.525l-10.78-10.77c-.84-.84-1.96-1.31-3.15-1.31s-2.31.47-3.15 1.31l-3.699 3.699 17.075 17.074 3.704-3.703a4.472 4.472 0 0 0 0-6.3z"/></svg>