<svg xmlns="http://www.w3.org/2000/svg" data-name="Layer 1" viewBox="0 0 64 64"><path fill="#8ec6ff" d="M54,15V61a1,1,0,0,1-1,1H11a1,1,0,0,1-1-1V3a1,1,0,0,1,1-1H41a1,1,0,0,1,.71.29l12,12A1,1,0,0,1,54,15Z"/><rect width="48" height="22" x="8" y="27" fill="#0478ed" rx="1" ry="1"/><path fill="#3f96ed" d="M54,15v1H41a1,1,0,0,1-1-1V2h1a1,1,0,0,1,.71.29l12,12A1,1,0,0,1,54,15Z"/><path fill="#fff" d="M24.07 31.16a3.19 3.19 0 0 1 3.2 3.2v7.29a3.19 3.19 0 1 1-6.38 0V34.36a3.19 3.19 0 0 1 3.19-3.2zm1.1 3.15A1.15 1.15 0 0 0 24 33.16a1.13 1.13 0 0 0-.82.34 1.1 1.1 0 0 0-.34.81v7.31a1.09 1.09 0 0 0 .34.81 1.12 1.12 0 0 0 .82.34 1.15 1.15 0 0 0 1.15-1.15zM35.36 41.48a3.1 3.1 0 0 1-.93 2.26 3 3 0 0 1-2.24.94H29V31.32h3.16a3 3 0 0 1 2.24.94 3.1 3.1 0 0 1 .92 2.25zM31 42.69h1.21a1.08 1.08 0 0 0 .81-.35 1.14 1.14 0 0 0 .33-.81v-7a1.12 1.12 0 0 0-.34-.82 1.09 1.09 0 0 0-.8-.34H31zM38.88 33.35H36.74v-2H43v2H40.9V44.68h-2z"/></svg>