<svg xmlns="http://www.w3.org/2000/svg" viewBox="0 0 128 128"><path fill="#D7C242" d="M73 4H19v120h90V40z"/><path fill="#100D11" d="M73 40h36L73 4z" opacity=".2"/><path fill="#373636" d="M109 125.2H19c-.7 0-1.2-.6-1.2-1.2V4c0-.7.6-1.2 1.2-1.2h50c6.2 0 11.2 5 11.2 11.2v18.8H99c6.2 0 11.2 5 11.2 11.2v80c0 .7-.5 1.2-1.2 1.2zm-88.8-2.4h87.5V44c0-4.8-3.9-8.8-8.8-8.8H79c-.7 0-1.2-.6-1.2-1.2V14c0-4.8-3.9-8.8-8.8-8.8H20.2v117.6z"/><path fill="#5D5C5A" d="M76 6.9c1.8 1.8 3 4.3 3 7.1v20h20c2.7 0 5.2 1.1 7 2.9l-30-30z"/><path fill="#373636" d="M106 38.1c-.3 0-.7-.1-.9-.4-1.6-1.6-3.8-2.5-6.2-2.5H79c-.7 0-1.2-.6-1.2-1.2V14c0-2.4-.9-4.6-2.6-6.2-.2-.2-.4-.6-.4-.9 0-.5.3-1 .8-1.2.5-.2 1-.1 1.4.3l30 30c.4.4.5.9.3 1.4s-.8.7-1.3.7zm-25.8-5.3H99c.4 0 .8 0 1.2.1l-20-20c0 .4.1.8.1 1.2v18.7z"/><path fill="#FFF" d="m49.7 82.8 8.5 8.5-11.4 2.9zM78.627 53.846l8.486 8.486-26.164 26.162-8.485-8.485z"/></svg>