<svg xmlns="http://www.w3.org/2000/svg" xmlns:xlink="http://www.w3.org/1999/xlink" width="500" zoomAndPan="magnify" viewBox="0 0 375 374.999991" height="500" preserveAspectRatio="xMidYMid meet" version="1.0"><defs><g/><clipPath id="id1"><path d="M 5.371094 0 L 369.871094 0 L 369.871094 375 L 5.371094 375 Z M 5.371094 0 " clip-rule="nonzero"/></clipPath></defs><g clip-path="url(#id1)"><path fill="#6ece9d" d="M 51.121094 278.203125 C 51.628906 279.03125 52.332031 280.171875 52.910156 281.113281 C 53.484375 282.054688 53.964844 282.769531 53.925781 282.789062 C 53.910156 282.792969 53.769531 282.625 53.554688 282.339844 C 53.332031 282.058594 53.039062 281.660156 52.71875 281.203125 C 52.082031 280.289062 51.304688 279.183594 50.738281 278.382812 L 49.371094 275.664062 C 49.960938 276.515625 50.539062 277.363281 51.121094 278.203125 Z M 114.367188 35.078125 C 117.320312 33.519531 120.34375 32.085938 123.378906 30.699219 C 124.910156 30.03125 126.4375 29.347656 127.980469 28.714844 C 129.53125 28.09375 131.066406 27.441406 132.640625 26.867188 C 131.097656 27.589844 129.597656 28.394531 128.082031 29.15625 C 127.324219 29.539062 126.585938 29.960938 125.839844 30.359375 C 125.097656 30.769531 124.347656 31.160156 123.613281 31.582031 C 120.671875 33.257812 117.757812 34.972656 114.9375 36.8125 C 119.238281 34.535156 123.128906 32.6875 126.644531 31.199219 C 127.082031 31.007812 127.511719 30.824219 127.9375 30.636719 C 128.367188 30.464844 128.785156 30.292969 129.203125 30.125 C 130.03125 29.792969 130.835938 29.464844 131.613281 29.15625 C 133.179688 28.5625 134.644531 28.015625 136.023438 27.523438 C 141.539062 25.578125 145.625 24.503906 148.75 23.742188 C 151.875 22.988281 154.066406 22.628906 155.878906 22.328125 C 157.707031 22.082031 159.160156 21.890625 160.863281 21.707031 C 167.796875 20.921875 174.519531 20.597656 181.085938 20.664062 C 187.652344 20.742188 194.0625 21.21875 200.375 22.035156 C 202.042969 22.253906 202.714844 22.578125 201.332031 22.535156 C 200.265625 22.5 199.226562 22.472656 198.214844 22.4375 C 197.207031 22.433594 196.222656 22.429688 195.269531 22.421875 C 194.3125 22.40625 193.386719 22.425781 192.484375 22.449219 C 191.585938 22.46875 190.710938 22.484375 189.863281 22.5 C 188.171875 22.585938 186.585938 22.640625 185.101562 22.742188 C 183.617188 22.855469 182.230469 22.941406 180.945312 23.066406 C 179.660156 23.195312 178.46875 23.320312 177.363281 23.433594 C 176.269531 23.578125 175.257812 23.710938 174.335938 23.832031 C 173.871094 23.898438 173.429688 23.953125 173.011719 24.015625 C 172.59375 24.085938 172.195312 24.148438 171.816406 24.210938 C 171.0625 24.339844 170.382812 24.457031 169.777344 24.554688 C 164.960938 25.480469 164.890625 25.703125 166.976562 25.542969 C 167.5 25.503906 168.15625 25.445312 168.910156 25.367188 C 169.667969 25.304688 170.515625 25.234375 171.421875 25.15625 C 173.234375 24.976562 175.285156 24.867188 177.234375 24.738281 C 178.210938 24.695312 179.167969 24.65625 180.058594 24.625 C 180.953125 24.585938 181.78125 24.558594 182.507812 24.566406 C 183.964844 24.5625 185.007812 24.578125 185.328125 24.640625 C 186.117188 24.785156 187.105469 24.957031 188.242188 25.105469 C 188.820312 25.179688 189.425781 25.257812 190.050781 25.335938 C 190.695312 25.421875 191.367188 25.511719 192.054688 25.601562 C 192.753906 25.691406 193.472656 25.78125 194.210938 25.871094 C 194.957031 25.976562 195.714844 26.082031 196.488281 26.195312 C 198.042969 26.386719 199.648438 26.660156 201.269531 26.914062 C 202.078125 27.035156 202.890625 27.183594 203.699219 27.335938 C 204.507812 27.484375 205.3125 27.632812 206.117188 27.78125 C 207.710938 28.109375 209.273438 28.441406 210.761719 28.785156 C 212.246094 29.15625 213.65625 29.488281 214.945312 29.867188 C 216.230469 30.246094 217.402344 30.601562 218.410156 30.953125 C 220.878906 31.851562 221.015625 32.371094 219.171875 32.570312 C 218.710938 32.625 218.128906 32.636719 217.421875 32.675781 C 216.714844 32.703125 215.890625 32.714844 214.953125 32.714844 C 214.015625 32.703125 212.960938 32.71875 211.796875 32.71875 C 211.214844 32.714844 210.605469 32.710938 209.972656 32.707031 C 209.332031 32.710938 208.667969 32.71875 207.980469 32.730469 C 198.054688 31.035156 187.984375 30.253906 177.5 30.515625 C 176.714844 30.546875 175.476562 30.632812 174.117188 30.726562 C 172.765625 30.859375 171.292969 31.003906 170.023438 31.128906 C 168.761719 31.503906 168.460938 31.710938 165.8125 32.320312 C 165.523438 32.390625 164.9375 32.519531 164.15625 32.675781 C 163.375 32.839844 162.402344 33.019531 161.355469 33.265625 C 160.304688 33.511719 159.167969 33.742188 158.074219 34.015625 C 156.976562 34.292969 155.90625 34.5625 154.972656 34.796875 C 149.089844 35.761719 143.199219 37.097656 137.375 38.765625 C 131.546875 40.425781 125.789062 42.433594 120.1875 44.777344 C 114.582031 47.109375 109.121094 49.746094 103.871094 52.636719 C 98.621094 55.535156 93.597656 58.699219 88.824219 62.035156 C 87.535156 62.945312 88.734375 61.703125 90.292969 60.203125 C 91.078125 59.464844 91.949219 58.65625 92.625 58.007812 C 93.304688 57.367188 93.800781 56.894531 93.800781 56.792969 C 93.8125 56.304688 94.214844 55.511719 93.90625 55.265625 C 93.75 55.144531 93.417969 55.160156 92.769531 55.421875 C 92.441406 55.550781 92.039062 55.742188 91.535156 56.011719 C 91.039062 56.285156 90.453125 56.644531 89.75 57.089844 C 89.359375 57.335938 88.796875 57.722656 88.085938 58.222656 C 87.390625 58.742188 86.550781 59.382812 85.585938 60.125 C 85.34375 60.308594 85.09375 60.503906 84.839844 60.699219 C 84.589844 60.90625 84.332031 61.117188 84.066406 61.332031 C 83.535156 61.769531 82.980469 62.226562 82.398438 62.703125 C 81.8125 63.175781 81.222656 63.699219 80.609375 64.234375 C 79.996094 64.769531 79.359375 65.328125 78.707031 65.898438 C 76.140625 68.242188 73.324219 70.917969 70.539062 73.863281 C 67.753906 76.8125 64.960938 79.984375 62.359375 83.230469 C 61.289062 84.597656 60.296875 85.855469 59.414062 87.039062 C 58.542969 88.234375 57.730469 89.3125 57.027344 90.332031 C 56.324219 91.351562 55.6875 92.277344 55.109375 93.125 C 54.550781 93.988281 54.054688 94.769531 53.597656 95.480469 C 53.375 95.835938 53.160156 96.175781 52.957031 96.496094 C 52.761719 96.820312 52.578125 97.132812 52.40625 97.425781 C 52.0625 98.015625 51.757812 98.542969 51.480469 99.023438 C 50.925781 99.980469 50.535156 100.753906 50.203125 101.414062 C 49.550781 102.738281 49.15625 103.597656 48.636719 104.753906 C 48.105469 105.90625 47.386719 107.3125 46.148438 109.761719 C 45.914062 110.222656 45.671875 110.671875 45.453125 111.121094 C 45.234375 111.574219 45.023438 112.015625 44.816406 112.445312 C 44.402344 113.3125 43.988281 114.136719 43.625 114.941406 C 43.261719 115.746094 42.917969 116.515625 42.585938 117.253906 C 42.417969 117.625 42.257812 117.984375 42.101562 118.335938 C 41.953125 118.695312 41.804688 119.039062 41.664062 119.378906 C 40.507812 122.09375 39.675781 124.332031 39.007812 126.128906 C 38.386719 127.945312 37.898438 129.308594 37.609375 130.339844 C 37.308594 131.367188 37.136719 132.039062 37.058594 132.441406 C 36.761719 134.042969 38 131.324219 38.863281 129.746094 C 40.457031 126.953125 40.910156 127.125 42.695312 124.097656 C 43.128906 123.339844 43.679688 122.394531 44.351562 121.160156 C 45.03125 119.898438 45.851562 118.382812 46.863281 116.515625 C 48.941406 112.769531 51.796875 107.523438 56.46875 100.480469 L 56.296875 100.792969 C 60.332031 94.585938 63.867188 90.140625 66.421875 87.152344 C 67.710938 85.667969 68.742188 84.53125 69.515625 83.742188 C 70.296875 82.960938 70.800781 82.515625 71.027344 82.398438 C 71.253906 82.28125 71.203125 82.492188 70.875 83.035156 C 70.546875 83.578125 69.929688 84.433594 69.082031 85.660156 C 68.648438 86.269531 68.15625 86.960938 67.601562 87.738281 C 67.050781 88.527344 66.441406 89.398438 65.773438 90.359375 C 65.097656 91.316406 64.402344 92.390625 63.617188 93.53125 C 62.84375 94.675781 62.046875 95.941406 61.167969 97.277344 C 56.65625 104.421875 52.875 111.574219 49.714844 118.871094 C 48.113281 122.507812 46.699219 126.195312 45.398438 129.921875 C 45.082031 130.855469 44.738281 131.78125 44.445312 132.726562 C 44.148438 133.667969 43.847656 134.609375 43.546875 135.550781 C 43.257812 136.496094 42.992188 137.453125 42.710938 138.40625 C 42.421875 139.355469 42.167969 140.316406 41.917969 141.28125 C 42.175781 140.707031 42.40625 140.222656 42.625 139.765625 C 42.855469 139.316406 43.078125 138.886719 43.3125 138.429688 C 43.789062 137.511719 44.269531 136.433594 45.054688 134.722656 C 45.445312 133.867188 45.859375 132.835938 46.425781 131.601562 C 46.699219 130.980469 46.996094 130.304688 47.320312 129.570312 C 47.636719 128.828125 48.019531 128.039062 48.410156 127.171875 C 49.992188 123.714844 52.140625 119.148438 55.457031 113.207031 C 57.921875 108.820312 60.066406 105.550781 61.875 102.996094 C 62.777344 101.71875 63.621094 100.632812 64.359375 99.660156 C 65.121094 98.703125 65.8125 97.878906 66.4375 97.140625 C 67.058594 96.394531 67.664062 95.773438 68.210938 95.179688 C 68.765625 94.59375 69.265625 94.046875 69.789062 93.539062 C 70.308594 93.023438 70.816406 92.523438 71.335938 92.007812 C 71.597656 91.742188 71.859375 91.476562 72.132812 91.203125 C 72.410156 90.929688 72.695312 90.652344 72.992188 90.363281 C 73.296875 90.058594 73.105469 90.378906 72.601562 91.089844 C 72.097656 91.808594 71.3125 92.945312 70.386719 94.242188 C 68.585938 96.871094 66.332031 100.226562 65.046875 102.46875 C 62.617188 106.042969 59.925781 110.449219 57.691406 114.542969 C 56.554688 116.582031 55.558594 118.550781 54.683594 120.261719 C 53.839844 121.984375 53.101562 123.4375 52.601562 124.503906 C 51.058594 127.589844 49.6875 130.753906 48.378906 133.851562 C 47.761719 135.414062 47.113281 136.945312 46.5625 138.476562 C 46.277344 139.238281 45.996094 139.996094 45.714844 140.742188 C 45.453125 141.492188 45.195312 142.234375 44.941406 142.96875 C 42.90625 148.835938 41.429688 154.167969 40.386719 158.183594 C 40.042969 159.421875 39.847656 160.15625 39.675781 160.507812 C 39.515625 160.855469 39.410156 160.824219 39.347656 160.542969 C 39.285156 160.257812 39.261719 159.726562 39.261719 159.074219 C 39.269531 158.425781 39.316406 157.660156 39.351562 156.90625 C 39.398438 156.140625 39.46875 155.097656 39.636719 153.902344 C 39.800781 152.703125 39.960938 151.328125 40.226562 149.894531 C 40.347656 149.175781 40.476562 148.4375 40.605469 147.691406 C 40.730469 146.945312 40.894531 146.203125 41.039062 145.457031 C 41.1875 144.714844 41.335938 143.976562 41.480469 143.25 C 41.636719 142.535156 41.792969 141.832031 41.941406 141.15625 C 38.828125 152.125 36.898438 163.78125 36.304688 175.34375 C 35.679688 186.910156 36.300781 198.359375 37.78125 208.976562 C 38.621094 215.023438 39.785156 221.214844 41.335938 227.277344 C 42.875 233.335938 44.734375 239.28125 46.824219 244.875 C 48.925781 250.460938 51.234375 255.699219 53.558594 260.398438 C 55.882812 265.101562 58.21875 269.265625 60.304688 272.761719 C 63.832031 278.566406 65.425781 281.058594 66.433594 282.929688 C 66.949219 283.851562 67.335938 284.609375 67.828125 285.496094 C 68.324219 286.378906 68.945312 287.375 69.90625 288.800781 C 71.78125 291.515625 75.375 295.9375 75.535156 296.40625 C 75.605469 296.648438 74.742188 295.964844 72.433594 293.515625 C 72.144531 293.210938 71.824219 292.882812 71.496094 292.519531 C 71.164062 292.148438 70.8125 291.753906 70.429688 291.328125 C 70.050781 290.902344 69.644531 290.445312 69.214844 289.960938 C 68.785156 289.46875 68.347656 288.933594 67.871094 288.375 C 65.964844 286.132812 63.71875 283.277344 61.109375 279.683594 C 60.34375 278.601562 59.691406 277.75 59.191406 277.054688 C 58.691406 276.367188 58.296875 275.863281 58 275.519531 C 57.40625 274.835938 57.195312 274.789062 57.238281 275.152344 C 57.332031 275.878906 58.421875 278.28125 59.621094 280.453125 C 60.789062 282.664062 63.527344 286.757812 62.707031 285.917969 C 62.5 285.710938 62.0625 285.199219 61.351562 284.25 C 61 283.773438 60.566406 283.195312 60.050781 282.503906 C 59.53125 281.808594 58.96875 280.96875 58.296875 280.007812 C 55.660156 276.136719 51.621094 270.042969 46.8125 260.238281 C 46.503906 259.601562 46.207031 258.988281 45.914062 258.386719 C 45.621094 257.785156 45.363281 257.191406 45.097656 256.617188 C 44.574219 255.464844 44.0625 254.386719 43.628906 253.34375 C 43.1875 252.308594 42.753906 251.335938 42.371094 250.414062 C 41.996094 249.488281 41.640625 248.621094 41.308594 247.808594 C 40.648438 246.183594 40.125 244.753906 39.636719 243.53125 C 39.175781 242.300781 38.789062 241.257812 38.457031 240.378906 C 38.117188 239.503906 37.863281 238.78125 37.640625 238.203125 C 37.417969 237.625 37.238281 237.183594 37.09375 236.851562 C 36.796875 236.1875 36.636719 235.960938 36.542969 235.941406 C 34.589844 235.5 32.976562 236.175781 31.546875 237.464844 C 31.542969 237.46875 31.558594 237.53125 31.589844 237.644531 C 31.625 237.757812 31.671875 237.921875 31.734375 238.128906 C 31.863281 238.542969 32.046875 239.136719 32.269531 239.847656 C 32.695312 241.273438 33.359375 243.136719 34 245.007812 C 34.328125 245.941406 34.683594 246.863281 35 247.734375 C 35.320312 248.605469 35.621094 249.414062 35.902344 250.101562 C 36.171875 250.789062 36.402344 251.363281 36.558594 251.765625 C 36.636719 251.964844 36.695312 252.125 36.738281 252.230469 C 36.777344 252.339844 36.796875 252.394531 36.792969 252.398438 C 36.644531 252.410156 36.214844 251.730469 35.691406 250.824219 C 35.433594 250.371094 35.144531 249.863281 34.867188 249.351562 C 34.597656 248.847656 34.328125 248.34375 34.082031 247.882812 C 31.210938 240.429688 28.695312 231.808594 27.265625 225.171875 C 24.796875 213.675781 23.734375 203.273438 23.539062 192.339844 C 23.328125 191.097656 23.1875 189.863281 23.015625 188.621094 C 22.933594 187.996094 22.851562 187.371094 22.765625 186.746094 C 22.703125 186.117188 22.632812 185.484375 22.566406 184.851562 C 22.503906 184.238281 22.441406 183.597656 22.363281 182.804688 C 22.28125 182.007812 22.230469 181.054688 22.132812 179.8125 C 22.523438 174.382812 23.144531 169.1875 23.980469 164.082031 C 24.8125 158.972656 25.871094 153.957031 27.191406 148.898438 C 28.511719 143.835938 30.085938 138.726562 32.007812 133.460938 C 33.929688 128.191406 36.199219 122.765625 38.960938 117.097656 C 38.101562 116.710938 37.453125 116.417969 36.804688 116.125 C 38.75 111.765625 40.871094 107.484375 43.164062 103.296875 C 45.488281 99.625 47.726562 96.488281 50.199219 93.167969 C 52.667969 89.84375 55.425781 86.359375 58.992188 82.160156 C 63.203125 77.175781 68.09375 72.035156 73.636719 66.839844 C 76.429688 64.269531 79.363281 61.65625 82.511719 59.109375 C 85.660156 56.558594 88.96875 54.015625 92.480469 51.546875 C 95.285156 49.585938 99.707031 46.496094 104.777344 43.425781 C 109.835938 40.335938 115.535156 37.273438 120.574219 34.921875 C 118.789062 35.488281 116.976562 36.03125 115.199219 36.660156 Z M 180.765625 355.304688 C 187.195312 356.101562 194.566406 356.453125 200.019531 356.535156 C 201.035156 356.550781 201.988281 356.5625 202.882812 356.582031 C 203.773438 356.582031 204.605469 356.582031 205.375 356.582031 C 206.890625 356.589844 208.179688 356.597656 209.242188 356.605469 C 210.277344 356.617188 211.066406 356.65625 211.601562 356.710938 C 212.132812 356.757812 212.410156 356.835938 212.433594 356.941406 C 212.453125 357.042969 212.21875 357.175781 211.722656 357.34375 C 211.222656 357.496094 210.464844 357.667969 209.4375 357.867188 C 208.414062 358.0625 207.125 358.292969 205.5625 358.484375 C 204.773438 358.582031 203.925781 358.6875 203.015625 358.800781 C 202.09375 358.890625 201.109375 358.980469 200.058594 359.074219 C 193.582031 359.617188 187.019531 359.824219 180.398438 359.621094 C 173.777344 359.417969 167.097656 358.84375 160.398438 357.863281 C 158.722656 357.640625 157.054688 357.328125 155.375 357.054688 C 153.695312 356.765625 152.027344 356.414062 150.34375 356.09375 C 148.675781 355.71875 146.992188 355.371094 145.320312 354.960938 C 143.648438 354.542969 141.964844 354.148438 140.300781 353.675781 C 133.617188 351.855469 126.945312 349.640625 120.375 346.945312 C 118.742188 346.273438 115.195312 344.707031 111.152344 342.59375 C 107.101562 340.5 102.546875 337.875 98.726562 335.457031 C 98.148438 335.085938 97.191406 334.441406 96.082031 333.683594 C 95.523438 333.308594 94.941406 332.894531 94.351562 332.464844 C 93.761719 332.03125 93.164062 331.597656 92.582031 331.175781 C 91.421875 330.335938 90.382812 329.492188 89.625 328.898438 C 88.867188 328.300781 88.417969 327.925781 88.496094 327.945312 C 92.269531 328.914062 96.792969 330.386719 102.539062 332.289062 C 102.601562 332.308594 103.515625 332.863281 104.964844 333.75 C 106.441406 334.601562 108.445312 335.808594 110.742188 337.050781 C 111.875 337.691406 113.09375 338.328125 114.328125 338.96875 C 114.945312 339.289062 115.558594 339.625 116.191406 339.929688 C 116.820312 340.242188 117.449219 340.550781 118.070312 340.859375 C 119.308594 341.484375 120.546875 342.050781 121.722656 342.589844 C 122.308594 342.859375 122.882812 343.121094 123.429688 343.375 C 123.984375 343.613281 124.519531 343.84375 125.027344 344.0625 C 123.367188 342.949219 121.753906 341.742188 120.144531 340.582031 C 119.351562 339.980469 118.5625 339.378906 117.773438 338.773438 C 117.378906 338.472656 116.984375 338.175781 116.597656 337.871094 L 115.445312 336.941406 C 114.101562 335.921875 108.378906 332.257812 112.445312 334.226562 C 113.648438 334.816406 114.722656 335.28125 115.652344 335.679688 C 116.585938 336.070312 117.363281 336.414062 118.03125 336.640625 C 119.359375 337.121094 120.160156 337.339844 120.53125 337.347656 C 121.273438 337.359375 120.304688 336.519531 118.40625 335.21875 C 117.464844 334.554688 116.300781 333.75 115 332.886719 C 114.351562 332.4375 113.675781 331.96875 112.980469 331.484375 C 112.285156 331 111.558594 330.515625 110.847656 329.988281 C 110.125 329.472656 109.398438 328.945312 108.667969 328.417969 C 107.941406 327.894531 107.234375 327.335938 106.527344 326.804688 C 105.113281 325.75 103.789062 324.652344 102.585938 323.664062 C 106.066406 326.128906 109.410156 328.234375 112.53125 330.148438 C 114.105469 331.082031 115.605469 331.992188 117.085938 332.804688 C 117.820312 333.21875 118.53125 333.636719 119.246094 334.019531 C 119.960938 334.398438 120.65625 334.773438 121.339844 335.140625 C 126.8125 338.050781 131.476562 340.1875 135.351562 341.871094 C 137.28125 342.742188 139.039062 343.425781 140.589844 344.097656 C 142.144531 344.726562 143.523438 345.28125 144.746094 345.777344 C 145.964844 346.253906 147.015625 346.675781 147.914062 347.058594 C 148.8125 347.4375 149.574219 347.734375 150.203125 348.023438 C 152.710938 349.167969 153.183594 349.707031 153.015625 350.128906 C 152.851562 350.546875 152.054688 350.8125 152.117188 351.285156 C 161.546875 353.441406 171.144531 354.769531 180.765625 355.304688 Z M 92.21875 319.808594 C 93.628906 321.082031 94.90625 322.144531 95.980469 323.0625 C 96.511719 323.523438 97.003906 323.9375 97.453125 324.300781 C 97.894531 324.667969 98.285156 324.996094 98.632812 325.285156 C 99.988281 326.445312 100.507812 326.933594 100.011719 326.769531 C 99.761719 326.691406 99.269531 326.425781 98.515625 325.988281 C 98.136719 325.765625 97.695312 325.5 97.183594 325.199219 C 96.671875 324.890625 96.089844 324.539062 95.457031 324.117188 C 94.175781 323.289062 92.617188 322.277344 90.8125 321 C 90.359375 320.683594 89.886719 320.355469 89.398438 320.011719 C 88.917969 319.660156 88.417969 319.292969 87.902344 318.914062 C 87.386719 318.535156 86.851562 318.140625 86.296875 317.734375 C 85.75 317.316406 85.1875 316.882812 84.609375 316.4375 C 82.664062 315.269531 80.765625 314.023438 78.859375 312.769531 C 75.570312 309.757812 72.421875 306.59375 69.378906 303.332031 C 74.605469 308.488281 80.203125 313.242188 86.007812 317.664062 C 87.90625 318.300781 89.875 319.050781 92.21875 319.808594 Z M 49.699219 234.644531 C 49.425781 233.800781 49.148438 232.9375 48.863281 232.066406 C 48.601562 231.183594 48.335938 230.289062 48.070312 229.386719 C 47.792969 228.488281 47.558594 227.566406 47.308594 226.644531 C 47.066406 225.722656 46.804688 224.800781 46.589844 223.863281 C 45.648438 220.15625 44.921875 216.40625 44.300781 212.976562 C 44.152344 212.117188 44.011719 211.277344 43.875 210.460938 C 43.726562 209.648438 43.632812 208.851562 43.511719 208.09375 C 43.398438 207.332031 43.277344 206.597656 43.179688 205.898438 C 43.089844 205.199219 43 204.539062 42.914062 203.910156 C 42.824219 203.289062 42.742188 202.703125 42.664062 202.164062 C 42.597656 201.621094 42.527344 201.125 42.464844 200.679688 C 42.332031 199.785156 42.207031 199.09375 42.089844 198.640625 C 41.859375 197.617188 41.472656 194.824219 41.214844 191.660156 C 41.132812 190.871094 41.089844 190.058594 41.039062 189.246094 C 40.984375 188.433594 40.929688 187.621094 40.878906 186.832031 C 40.808594 185.257812 40.742188 183.777344 40.6875 182.554688 C 40.613281 180.125 40.488281 178.785156 40.261719 179.996094 C 40.207031 180.300781 40.144531 180.761719 40.074219 181.40625 C 40.003906 182.050781 39.917969 182.875 39.867188 183.910156 C 39.746094 185.976562 39.613281 188.871094 39.671875 192.769531 C 39.683594 193.578125 39.636719 193.457031 39.550781 192.738281 C 39.46875 192.023438 39.335938 190.71875 39.253906 189.152344 C 39.207031 188.371094 39.160156 187.527344 39.105469 186.664062 C 39.078125 185.796875 39.050781 184.910156 39.019531 184.046875 C 39.003906 183.617188 38.992188 183.1875 38.976562 182.773438 C 38.972656 182.359375 38.96875 181.957031 38.964844 181.566406 C 38.953125 180.792969 38.945312 180.085938 38.933594 179.480469 C 39.199219 176.222656 39.582031 172.023438 40.136719 168.414062 C 40.203125 167.964844 40.265625 167.519531 40.324219 167.089844 C 40.398438 166.660156 40.46875 166.242188 40.539062 165.839844 C 40.675781 165.035156 40.804688 164.289062 40.921875 163.621094 C 41.171875 162.292969 41.40625 161.296875 41.539062 160.8125 C 42.4375 157.703125 43.300781 154.765625 45.03125 149.082031 C 45.921875 146.25 47 142.71875 48.65625 138.222656 C 49.054688 137.097656 49.527344 135.921875 49.996094 134.664062 C 50.476562 133.414062 51.027344 132.113281 51.578125 130.722656 C 52.761719 127.976562 54.0625 124.929688 55.703125 121.632812 C 55.917969 121.195312 56.113281 120.78125 56.316406 120.390625 C 56.519531 120.003906 56.714844 119.640625 56.898438 119.289062 C 57.269531 118.597656 57.605469 117.984375 57.910156 117.4375 C 58.546875 116.359375 59.0625 115.558594 59.480469 114.941406 C 59.894531 114.320312 60.230469 113.894531 60.515625 113.574219 C 60.796875 113.25 61.019531 113.023438 61.226562 112.816406 C 61.703125 112.332031 62.1875 111.765625 62.746094 111.085938 C 63.304688 110.414062 63.917969 109.613281 64.613281 108.628906 C 65.332031 107.664062 66.136719 106.515625 67.082031 105.152344 C 67.566406 104.480469 68.082031 103.746094 68.636719 102.949219 C 69.183594 102.152344 69.808594 101.320312 70.457031 100.402344 C 73.089844 96.773438 76.53125 92.109375 81.539062 86.40625 C 86.550781 80.714844 93.117188 73.925781 102.320312 66.648438 C 103.042969 66.074219 103.75 65.511719 104.464844 64.980469 C 105.179688 64.441406 105.882812 63.90625 106.582031 63.378906 C 108.007812 62.363281 109.390625 61.328125 110.84375 60.359375 C 112.269531 59.355469 113.753906 58.410156 115.28125 57.421875 C 116.046875 56.933594 116.84375 56.464844 117.644531 55.96875 C 118.445312 55.472656 119.28125 54.996094 120.136719 54.507812 C 120.5625 54.265625 121.078125 53.976562 121.65625 53.648438 C 122.238281 53.332031 122.890625 52.996094 123.574219 52.636719 C 124.933594 51.902344 126.464844 51.175781 127.890625 50.476562 C 129.324219 49.792969 130.679688 49.203125 131.6875 48.742188 C 132.710938 48.316406 133.390625 48.039062 133.496094 48.011719 C 134.050781 47.867188 134.765625 47.632812 135.589844 47.398438 C 136.417969 47.152344 137.335938 46.882812 138.277344 46.605469 C 139.21875 46.324219 140.203125 46.074219 141.125 45.816406 C 141.585938 45.695312 142.035156 45.570312 142.464844 45.464844 C 142.894531 45.367188 143.304688 45.273438 143.6875 45.183594 C 145.203125 44.847656 146.226562 44.671875 146.179688 44.863281 C 146.128906 45.042969 145.007812 45.574219 142.25 46.679688 C 141.304688 47.078125 140.425781 47.449219 139.609375 47.796875 C 138.796875 48.152344 138.054688 48.503906 137.367188 48.820312 C 135.988281 49.4375 134.875 50.023438 133.960938 50.492188 C 133.507812 50.730469 133.101562 50.941406 132.746094 51.132812 C 132.398438 51.335938 132.097656 51.511719 131.839844 51.667969 C 131.328125 51.980469 131 52.203125 130.828125 52.355469 C 130.484375 52.65625 130.777344 52.65625 131.503906 52.449219 C 131.867188 52.347656 132.335938 52.195312 132.894531 52 C 133.460938 51.804688 134.109375 51.585938 134.8125 51.347656 C 135.527344 51.105469 136.289062 50.808594 137.113281 50.546875 C 137.929688 50.273438 138.78125 49.988281 139.652344 49.699219 C 140.523438 49.410156 141.417969 49.148438 142.292969 48.871094 C 142.730469 48.738281 143.167969 48.59375 143.601562 48.46875 C 144.035156 48.347656 144.460938 48.230469 144.882812 48.109375 C 145.722656 47.882812 146.519531 47.644531 147.269531 47.464844 C 148.015625 47.285156 148.703125 47.125 149.304688 46.988281 C 150.507812 46.710938 151.378906 46.59375 151.703125 46.625 C 152.582031 46.335938 153.402344 46.074219 154.167969 45.824219 C 154.933594 45.589844 155.648438 45.375 156.3125 45.175781 C 157.636719 44.75 158.785156 44.457031 159.785156 44.152344 C 160.785156 43.851562 161.65625 43.621094 162.449219 43.402344 C 163.238281 43.179688 163.953125 42.976562 164.648438 42.78125 C 166.296875 42.359375 167.871094 41.910156 169.445312 41.554688 C 170.234375 41.371094 171.015625 41.171875 171.800781 40.996094 C 172.589844 40.828125 173.378906 40.660156 174.175781 40.492188 C 179.488281 39.945312 184.496094 39.695312 190.261719 39.679688 C 194.429688 39.683594 199.609375 39.84375 204.304688 40.273438 C 204.652344 40.246094 204.996094 40.214844 205.335938 40.1875 C 205.675781 40.167969 206.015625 40.148438 206.359375 40.128906 C 207.058594 40.09375 207.769531 40.058594 208.535156 40.023438 C 209.097656 39.992188 209.742188 40 210.550781 40.003906 C 211.355469 40.019531 212.328125 40.003906 213.535156 40.042969 C 217.265625 40.65625 220.875 41.433594 224.34375 42.257812 C 227.8125 43.101562 231.125 44.0625 234.265625 45.046875 C 240.53125 47.070312 246.0625 49.320312 250.640625 51.484375 C 251.929688 52.089844 253.195312 52.726562 254.472656 53.339844 L 256.371094 54.304688 C 257.003906 54.625 257.644531 54.941406 258.273438 55.28125 C 259.535156 55.953125 260.816406 56.605469 262.089844 57.320312 C 262.726562 57.675781 263.378906 58.015625 264.019531 58.378906 C 264.664062 58.742188 265.3125 59.113281 265.964844 59.484375 C 266.292969 59.667969 266.621094 59.855469 266.953125 60.042969 C 267.277344 60.234375 267.605469 60.429688 267.9375 60.625 C 268.597656 61.011719 269.265625 61.40625 269.945312 61.800781 C 270.613281 62.210938 271.289062 62.625 271.972656 63.042969 C 272.316406 63.253906 272.660156 63.460938 273.007812 63.675781 C 273.351562 63.894531 273.695312 64.113281 274.042969 64.335938 C 276.839844 66.078125 279.71875 68.023438 282.761719 70.171875 C 290.183594 75.445312 297.09375 81.03125 302.628906 87.09375 C 312.5 97.851562 320.171875 109.847656 326.121094 122.535156 C 328.425781 127.453125 330.203125 131.953125 331.890625 136.890625 C 335.207031 146.589844 337.296875 155.886719 338.484375 163.152344 C 338.566406 163.605469 338.640625 164.050781 338.71875 164.484375 C 338.785156 164.921875 338.851562 165.351562 338.914062 165.773438 C 339.042969 166.613281 339.171875 167.417969 339.289062 168.1875 C 339.484375 169.726562 339.707031 171.105469 339.867188 172.3125 C 340.019531 173.519531 340.167969 174.550781 340.3125 175.382812 C 340.4375 176.210938 340.554688 176.84375 340.667969 177.25 C 340.839844 177.867188 341.023438 178.539062 341.199219 179.230469 C 341.363281 179.925781 341.527344 180.632812 341.6875 181.328125 C 341.84375 182.027344 342.027344 182.710938 342.167969 183.34375 C 342.308594 183.976562 342.453125 184.5625 342.597656 185.066406 C 343.167969 187.070312 343.71875 187.742188 344.210938 184.804688 C 345.015625 179.949219 345.59375 174.570312 345.730469 168.386719 C 345.742188 168 345.75 167.609375 345.757812 167.21875 C 345.757812 166.824219 345.753906 166.429688 345.753906 166.03125 C 345.75 165.230469 345.746094 164.417969 345.742188 163.59375 C 345.722656 162.769531 345.683594 161.933594 345.652344 161.078125 C 345.625 160.226562 345.59375 159.359375 345.523438 158.480469 C 345.460938 157.59375 345.398438 156.699219 345.339844 155.789062 C 345.246094 154.878906 345.15625 153.953125 345.0625 153.015625 C 344.980469 152.070312 344.855469 151.117188 344.722656 150.148438 C 344.589844 149.179688 344.484375 148.183594 344.3125 147.1875 C 343.714844 143.171875 342.84375 138.917969 341.695312 134.394531 C 340.53125 129.871094 339.0625 125.089844 337.175781 120.058594 C 335.285156 115.03125 332.984375 109.757812 330.152344 104.28125 C 327.292969 98.824219 323.925781 93.148438 319.878906 87.375 C 317.664062 84.203125 315.40625 81.261719 313.203125 78.46875 C 312.070312 77.097656 310.996094 75.726562 309.875 74.445312 C 309.320312 73.796875 308.773438 73.160156 308.234375 72.523438 C 307.679688 71.902344 307.132812 71.289062 306.589844 70.679688 C 302.25 65.824219 298.03125 61.652344 294.070312 57.992188 C 290.109375 54.332031 286.402344 51.183594 282.992188 48.433594 C 279.570312 45.699219 276.464844 43.328125 273.664062 41.253906 C 272.273438 40.238281 270.953125 39.273438 269.695312 38.351562 C 268.433594 37.46875 267.273438 36.609375 266.175781 35.824219 C 265.070312 35.046875 264.050781 34.304688 263.097656 33.605469 C 262.140625 32.925781 261.253906 32.277344 260.441406 31.660156 C 259.628906 31.035156 258.863281 30.492188 258.171875 29.941406 C 257.476562 29.398438 256.851562 28.875 256.269531 28.394531 C 255.109375 27.4375 254.171875 26.5625 253.402344 25.757812 C 252.839844 25.167969 252.664062 24.742188 252.839844 24.433594 C 253.019531 24.125 253.554688 23.929688 254.382812 23.875 C 255.214844 23.816406 256.355469 23.878906 257.753906 24.039062 C 259.144531 24.207031 260.789062 24.515625 262.644531 24.902344 C 266.335938 25.730469 270.839844 27.011719 275.699219 28.742188 C 280.558594 30.464844 285.765625 32.640625 290.894531 35.105469 C 292.078125 35.675781 293.335938 36.316406 294.441406 36.839844 C 295.546875 37.363281 296.46875 37.824219 297.007812 37.984375 C 297.542969 38.152344 297.679688 38.046875 297.171875 37.503906 C 296.917969 37.230469 296.503906 36.851562 295.898438 36.335938 C 295.289062 35.832031 294.472656 35.214844 293.433594 34.449219 C 290.214844 32.117188 287.863281 30.414062 286.179688 29.199219 C 285.382812 28.601562 284.785156 28.128906 284.359375 27.777344 C 283.9375 27.421875 283.699219 27.167969 283.621094 27.003906 C 283.304688 26.347656 285.601562 27.109375 289.050781 28.671875 C 289.480469 28.855469 290.28125 29.269531 291.242188 29.796875 C 292.199219 30.320312 293.335938 30.917969 294.394531 31.53125 C 295.457031 32.140625 296.46875 32.710938 297.214844 33.121094 C 297.964844 33.527344 298.4375 33.792969 298.453125 33.726562 C 298.464844 33.664062 298.023438 33.277344 296.867188 32.476562 C 296.292969 32.078125 295.546875 31.5625 294.601562 30.929688 C 293.65625 30.292969 292.484375 29.570312 291.09375 28.695312 C 290.402344 28.25 289.636719 27.804688 288.8125 27.316406 C 287.988281 26.832031 287.105469 26.300781 286.144531 25.753906 C 285.179688 25.21875 284.152344 24.648438 283.050781 24.039062 C 281.953125 23.429688 280.761719 22.832031 279.507812 22.171875 C 274.460938 19.59375 268.128906 16.609375 260.105469 13.644531 C 259.191406 13.308594 257.71875 12.722656 255.925781 12.085938 C 255.035156 11.761719 254.070312 11.390625 253.058594 11.042969 C 252.046875 10.695312 250.992188 10.335938 249.933594 9.96875 C 245.6875 8.546875 241.320312 7.25 239.152344 6.640625 C 235.132812 5.449219 228.792969 3.90625 221.582031 2.738281 C 214.378906 1.546875 206.316406 0.738281 198.980469 0.433594 C 191.644531 0.128906 185.039062 0.269531 180.707031 0.433594 C 179.625 0.453125 178.683594 0.503906 177.910156 0.527344 C 177.132812 0.550781 176.523438 0.554688 176.105469 0.539062 C 175.265625 0.511719 175.1875 0.40625 176.0625 0.199219 C 176.152344 0.175781 175.84375 0.1875 175.222656 0.222656 C 174.597656 0.261719 173.667969 0.355469 172.515625 0.457031 C 171.359375 0.570312 169.980469 0.695312 168.480469 0.894531 C 166.972656 1.078125 165.332031 1.273438 163.65625 1.546875 C 162.820312 1.675781 161.96875 1.804688 161.121094 1.933594 C 160.273438 2.070312 159.429688 2.230469 158.59375 2.378906 C 157.757812 2.53125 156.933594 2.679688 156.136719 2.824219 C 155.335938 2.992188 154.5625 3.15625 153.820312 3.308594 C 153.078125 3.464844 152.371094 3.609375 151.707031 3.753906 C 151.046875 3.910156 150.429688 4.054688 149.867188 4.1875 C 148.746094 4.457031 147.839844 4.679688 147.246094 4.832031 C 139.484375 6.9375 133.082031 9.140625 127.667969 11.191406 C 122.257812 13.261719 117.820312 15.152344 114.042969 16.898438 C 113.570312 17.113281 113.105469 17.320312 112.648438 17.527344 C 112.199219 17.742188 111.753906 17.949219 111.320312 18.15625 C 110.449219 18.566406 109.613281 18.964844 108.804688 19.347656 C 107.203125 20.136719 105.714844 20.871094 104.296875 21.566406 C 102.902344 22.28125 101.582031 22.957031 100.296875 23.613281 C 99.035156 24.289062 97.8125 24.933594 96.59375 25.582031 C 96.140625 25.820312 94.933594 26.554688 93.292969 27.550781 C 92.46875 28.039062 91.5625 28.632812 90.585938 29.265625 C 89.609375 29.898438 88.566406 30.558594 87.527344 31.285156 C 86.484375 32.007812 85.40625 32.722656 84.371094 33.46875 C 83.339844 34.214844 82.328125 34.949219 81.375 35.644531 C 80.429688 36.355469 79.550781 37.035156 78.765625 37.640625 C 78.375 37.941406 78.007812 38.226562 77.667969 38.488281 C 77.335938 38.761719 77.03125 39.007812 76.757812 39.230469 C 70.546875 44.308594 65.015625 49.371094 58.949219 55.800781 C 55.925781 59.027344 52.75 62.574219 49.410156 66.742188 C 46.070312 70.902344 42.523438 75.644531 38.8125 81.253906 C 39.449219 80.203125 40.050781 79.210938 40.617188 78.277344 C 41.191406 77.351562 41.753906 76.488281 42.273438 75.667969 C 43.308594 74.019531 44.289062 72.613281 45.152344 71.320312 C 45.585938 70.671875 46.007812 70.066406 46.417969 69.492188 C 46.824219 68.917969 47.214844 68.367188 47.589844 67.839844 C 48.332031 66.773438 49.058594 65.816406 49.757812 64.878906 C 39.480469 76.929688 30.796875 90.433594 23.957031 104.722656 C 20.554688 111.878906 17.605469 119.226562 15.136719 126.6875 C 12.695312 134.160156 10.695312 141.730469 9.195312 149.332031 C 7.703125 156.941406 6.675781 164.566406 6.082031 172.140625 C 5.507812 179.714844 5.375 187.226562 5.628906 194.628906 C 6.117188 209.445312 8.296875 223.816406 11.636719 237.332031 C 11.707031 237.605469 11.820312 238.054688 11.980469 238.648438 C 12.152344 239.234375 12.367188 239.960938 12.613281 240.796875 C 12.863281 241.632812 13.128906 242.578125 13.460938 243.582031 C 13.789062 244.589844 14.144531 245.667969 14.507812 246.78125 C 16.015625 251.222656 17.933594 256.183594 19.375 259.511719 C 21.117188 263.535156 22.960938 267.554688 24.992188 271.457031 L 25.742188 272.925781 L 26.523438 274.375 C 27.050781 275.339844 27.558594 276.308594 28.09375 277.261719 C 29.179688 279.15625 30.25 281.050781 31.382812 282.890625 C 35.835938 290.292969 40.746094 297.113281 45.597656 303.15625 C 50.007812 308.597656 54.488281 313.523438 58.789062 317.871094 C 63.085938 322.222656 67.207031 326 70.890625 329.210938 C 78.285156 335.597656 83.875 339.75 85.859375 341.695312 C 86.59375 342.402344 87.96875 343.546875 89.980469 344.964844 C 90.980469 345.679688 92.128906 346.484375 93.441406 347.328125 C 94.097656 347.75 94.785156 348.191406 95.503906 348.65625 C 96.230469 349.113281 97 349.566406 97.800781 350.050781 C 100.988281 351.980469 104.777344 354.054688 109.089844 356.183594 C 113.398438 358.316406 118.257812 360.464844 123.589844 362.484375 C 124.539062 362.863281 125.503906 363.203125 126.46875 363.550781 C 127.429688 363.894531 128.390625 364.253906 129.363281 364.582031 C 131.3125 365.222656 133.25 365.902344 135.222656 366.480469 C 139.140625 367.714844 143.125 368.75 147.105469 369.726562 C 148.105469 369.949219 149.105469 370.175781 150.101562 370.398438 L 151.601562 370.730469 L 153.105469 371.035156 C 154.105469 371.230469 155.105469 371.429688 156.105469 371.628906 C 157.109375 371.800781 158.109375 371.972656 159.109375 372.148438 L 160.609375 372.40625 L 162.113281 372.632812 C 163.113281 372.777344 164.113281 372.921875 165.109375 373.070312 C 166.109375 373.203125 167.109375 373.316406 168.101562 373.441406 C 169.097656 373.558594 170.089844 373.6875 171.085938 373.777344 C 179.027344 374.578125 186.847656 374.882812 194.371094 374.714844 C 201.894531 374.539062 209.136719 373.921875 215.9375 372.960938 C 217.902344 372.707031 219.839844 372.367188 221.765625 372.054688 C 222.726562 371.902344 223.679688 371.699219 224.628906 371.527344 C 225.578125 371.34375 226.527344 371.167969 227.464844 370.976562 C 231.21875 370.175781 234.898438 369.328125 238.472656 368.335938 C 245.632812 366.382812 252.441406 364.09375 258.851562 361.480469 C 271.683594 356.28125 282.980469 350.015625 292.792969 343.316406 C 302.609375 336.613281 310.953125 329.476562 318.046875 322.410156 C 321.597656 318.875 324.808594 315.328125 327.757812 311.851562 C 330.714844 308.386719 333.363281 304.945312 335.773438 301.609375 C 344.535156 289.53125 352.230469 275.632812 357.890625 261.15625 C 359.285156 257.527344 360.609375 253.890625 361.75 250.222656 C 362.351562 248.398438 362.867188 246.554688 363.398438 244.730469 C 363.671875 243.816406 363.898438 242.894531 364.140625 241.980469 C 364.375 241.0625 364.636719 240.15625 364.847656 239.238281 C 366.632812 231.921875 367.933594 224.683594 368.722656 217.699219 C 368.8125 216.800781 368.910156 215.890625 369.003906 214.96875 C 369.050781 214.507812 369.101562 214.046875 369.148438 213.582031 C 369.1875 213.113281 369.222656 212.648438 369.261719 212.179688 C 369.332031 211.242188 369.410156 210.304688 369.484375 209.367188 C 369.535156 208.425781 369.589844 207.488281 369.640625 206.558594 C 369.757812 204.707031 369.777344 202.875 369.824219 201.132812 C 369.859375 199.386719 369.828125 197.722656 369.816406 196.183594 C 369.78125 194.648438 369.707031 193.242188 369.644531 192.007812 C 369.582031 190.777344 369.453125 189.722656 369.363281 188.890625 C 369.15625 187.222656 368.941406 186.449219 368.714844 186.933594 C 367.699219 189.070312 366.726562 194.050781 365.296875 199.769531 C 364.929688 201.207031 364.558594 202.679688 364.179688 204.167969 C 363.761719 205.65625 363.339844 207.160156 362.925781 208.65625 C 362.464844 210.144531 362.03125 211.617188 361.5625 213.046875 C 361.070312 214.46875 360.613281 215.851562 360.125 217.15625 C 359.800781 218.003906 359.429688 219.109375 359.042969 220.285156 C 358.644531 221.457031 358.203125 222.6875 357.804688 223.792969 C 357.574219 224.441406 357.335938 225.03125 357.101562 225.597656 C 356.867188 226.152344 356.640625 226.6875 356.414062 227.222656 C 355.980469 228.277344 355.507812 229.292969 355.003906 230.429688 C 354.5 231.609375 353.953125 232.875 353.3125 234.363281 C 352.6875 235.902344 351.898438 237.695312 350.988281 239.921875 C 349.851562 242.570312 347.753906 247.902344 344.933594 253.757812 C 342.15625 259.636719 338.578125 265.976562 335.347656 271.007812 C 335.292969 271.503906 335.3125 271.875 335.28125 272.335938 C 335.238281 272.792969 335.140625 273.339844 334.84375 274.199219 C 334.695312 274.613281 334.210938 275.621094 333.578125 276.757812 C 332.941406 277.890625 332.222656 279.199219 331.632812 280.222656 C 329.421875 283.398438 327.09375 286.445312 324.691406 289.457031 C 322.261719 292.449219 319.726562 295.378906 317.046875 298.289062 C 314.597656 300.921875 311.21875 304.332031 308.167969 307.160156 C 307.398438 307.863281 306.660156 308.539062 305.972656 309.167969 C 305.285156 309.796875 304.621094 310.351562 304.050781 310.863281 C 303.476562 311.367188 302.972656 311.808594 302.566406 312.167969 C 302.15625 312.523438 301.839844 312.792969 301.640625 312.964844 C 299.066406 315.316406 295.84375 317.945312 293.527344 319.855469 C 291.171875 321.710938 289.746094 322.890625 290.730469 322.273438 C 292.011719 321.46875 293.125 320.792969 294.066406 320.222656 C 295 319.636719 295.777344 319.171875 296.40625 318.816406 C 297.671875 318.117188 298.3125 317.824219 298.484375 317.953125 C 298.8125 318.203125 297.164062 320.035156 294.109375 322.769531 C 291.054688 325.503906 286.550781 329.085938 281.179688 332.71875 C 275.8125 336.355469 269.59375 340.078125 263.292969 343.246094 C 252.035156 347.871094 241.277344 350.820312 231.652344 352.628906 C 226.835938 353.550781 222.289062 354.148438 218.085938 354.5625 C 217.03125 354.65625 216.003906 354.777344 214.992188 354.84375 C 213.984375 354.910156 212.992188 354.976562 212.027344 355.039062 C 211.0625 355.113281 210.113281 355.125 209.195312 355.167969 C 208.273438 355.199219 207.375 355.253906 206.5 355.257812 C 199.492188 355.382812 193.992188 355.015625 190.222656 354.585938 C 188.335938 354.363281 186.882812 354.117188 185.886719 353.917969 C 184.886719 353.707031 184.34375 353.492188 184.277344 353.335938 C 184.179688 353.148438 190.675781 353.171875 194.109375 352.925781 C 200.066406 353.074219 205.980469 352.917969 212.019531 352.425781 C 214.8125 352.1875 217.875 351.859375 220.804688 351.445312 C 223.015625 350.976562 227.359375 349.972656 227.039062 349.890625 C 226.347656 349.710938 225.128906 349.65625 223.074219 349.738281 C 222.042969 349.761719 220.804688 349.824219 219.316406 349.925781 C 218.5625 349.96875 217.753906 350.011719 216.886719 350.058594 C 216.007812 350.109375 215.066406 350.1875 214.050781 350.222656 C 213.03125 350.277344 211.941406 350.332031 210.777344 350.390625 C 209.609375 350.433594 208.363281 350.476562 207.039062 350.523438 C 205.710938 350.550781 204.300781 350.582031 202.804688 350.609375 C 201.304688 350.609375 199.71875 350.605469 198.042969 350.605469 C 191.335938 350.492188 183.140625 350.09375 173.28125 348.65625 C 167.277344 348.515625 161.734375 348.078125 156.199219 347.375 C 147.378906 344.78125 138.175781 341.128906 130.871094 337.460938 C 123.917969 333.992188 117.378906 329.964844 114 327.390625 C 112.765625 326.4375 117.769531 329.003906 123.972656 331.921875 C 132.453125 335.875 141.089844 339.0625 149.558594 341.46875 C 153.792969 342.667969 157.984375 343.671875 162.085938 344.527344 C 166.1875 345.367188 170.210938 346.007812 174.097656 346.542969 C 175.070312 346.660156 176.035156 346.78125 176.988281 346.898438 C 177.945312 347.027344 178.894531 347.097656 179.832031 347.199219 C 181.707031 347.410156 183.550781 347.519531 185.347656 347.671875 C 186.246094 347.742188 187.136719 347.773438 188.015625 347.824219 C 188.898438 347.867188 189.761719 347.9375 190.621094 347.953125 C 192.335938 348 194 348.089844 195.621094 348.085938 C 202.097656 348.171875 207.773438 347.929688 212.429688 347.632812 C 213.0625 347.589844 213.714844 347.546875 214.386719 347.503906 C 215.058594 347.460938 215.746094 347.378906 216.460938 347.316406 C 217.175781 347.25 217.914062 347.179688 218.679688 347.105469 C 219.445312 347.011719 220.234375 346.914062 221.054688 346.816406 C 224.332031 346.421875 228.078125 345.839844 232.464844 344.976562 C 233.386719 344.605469 234.226562 344.277344 235.027344 343.941406 C 235.824219 343.597656 236.589844 343.265625 237.371094 342.929688 C 237.761719 342.757812 238.160156 342.59375 238.558594 342.410156 C 238.960938 342.226562 239.371094 342.039062 239.800781 341.839844 C 240.652344 341.441406 241.578125 341.039062 242.59375 340.535156 C 243.683594 340.242188 244.675781 339.980469 245.589844 339.734375 C 246.503906 339.476562 247.332031 339.226562 248.101562 339.003906 C 249.644531 338.570312 250.917969 338.144531 252.078125 337.78125 C 253.242188 337.417969 254.273438 337.050781 255.3125 336.683594 C 255.832031 336.496094 256.351562 336.304688 256.890625 336.113281 C 257.429688 335.917969 257.980469 335.691406 258.566406 335.460938 C 259.265625 335.179688 259.988281 334.890625 260.738281 334.589844 C 261.484375 334.269531 262.246094 333.941406 263.03125 333.605469 C 264.605469 332.941406 266.214844 332.15625 267.871094 331.398438 C 271.148438 329.792969 274.527344 328.0625 277.636719 326.285156 C 277.699219 326.167969 278.402344 325.703125 279.539062 324.9375 C 280.113281 324.566406 280.796875 324.121094 281.570312 323.617188 C 282.335938 323.105469 283.1875 322.53125 284.109375 321.914062 C 287.78125 319.433594 292.410156 316.078125 296.554688 312.671875 C 300.710938 309.289062 304.378906 305.863281 306.507812 303.714844 C 308.617188 301.546875 309.261719 300.730469 307.261719 302.359375 C 305.875 303.484375 305.371094 303.746094 304.894531 303.957031 C 304.417969 304.171875 303.988281 304.351562 302.746094 305.296875 C 302.136719 305.78125 301.285156 306.410156 300.132812 307.34375 C 299.84375 307.578125 299.539062 307.828125 299.210938 308.097656 C 298.875 308.359375 298.515625 308.640625 298.136719 308.941406 C 297.367188 309.535156 296.53125 310.234375 295.542969 310.980469 C 295.050781 311.359375 294.535156 311.757812 293.984375 312.175781 C 293.714844 312.386719 293.429688 312.605469 293.140625 312.828125 C 292.847656 313.042969 292.546875 313.269531 292.238281 313.496094 C 291.617188 313.953125 290.96875 314.433594 290.285156 314.941406 C 289.601562 315.445312 288.859375 315.949219 288.097656 316.496094 C 285.027344 318.652344 281.320312 321.152344 276.742188 323.871094 C 273.34375 325.890625 269.980469 327.640625 266.816406 329.183594 C 266.019531 329.550781 265.234375 329.914062 264.464844 330.269531 C 264.078125 330.445312 263.699219 330.617188 263.320312 330.789062 C 262.941406 330.953125 262.566406 331.113281 262.191406 331.269531 C 261.449219 331.585938 260.722656 331.890625 260.011719 332.191406 C 259.300781 332.480469 258.601562 332.742188 257.925781 333.007812 C 257.246094 333.265625 256.59375 333.523438 255.953125 333.753906 C 255.316406 333.976562 254.695312 334.195312 254.101562 334.402344 C 253.507812 334.605469 252.933594 334.800781 252.386719 334.984375 C 251.835938 335.15625 251.308594 335.320312 250.808594 335.472656 C 248.816406 336.101562 247.222656 336.496094 246.15625 336.738281 C 242.398438 337.574219 238.074219 338.496094 232.964844 339.359375 C 227.855469 340.222656 221.957031 341.027344 215.082031 341.558594 C 214.222656 341.636719 213.347656 341.6875 212.457031 341.734375 C 211.566406 341.785156 210.660156 341.847656 209.738281 341.890625 C 207.890625 341.949219 205.988281 342.046875 204.011719 342.050781 C 202.039062 342.101562 199.996094 342.054688 197.886719 342.035156 C 196.835938 342.003906 195.761719 341.96875 194.671875 341.933594 C 193.585938 341.902344 192.480469 341.816406 191.359375 341.765625 C 182.386719 341.222656 172.304688 339.949219 161.214844 337.179688 C 159.199219 336.671875 158.941406 336.480469 159.859375 336.539062 C 160.785156 336.59375 162.871094 336.953125 165.597656 337.382812 C 166.265625 337.496094 167.113281 337.644531 168.097656 337.785156 C 169.085938 337.929688 170.199219 338.128906 171.410156 338.28125 C 172.621094 338.429688 173.914062 338.632812 175.257812 338.773438 C 175.929688 338.847656 176.613281 338.921875 177.296875 338.996094 C 177.640625 339.035156 177.984375 339.074219 178.328125 339.113281 L 179.363281 339.199219 C 184.882812 339.714844 190.335938 339.898438 192.652344 339.941406 C 194.273438 340.019531 195.886719 340.003906 197.492188 340.027344 C 198.292969 340.046875 199.09375 340.011719 199.894531 340.007812 C 200.691406 339.992188 201.488281 339.996094 202.285156 339.96875 C 205.460938 339.855469 208.617188 339.703125 211.734375 339.402344 C 217.972656 338.851562 224.097656 337.945312 230.097656 336.660156 C 236.097656 335.375 241.988281 333.78125 247.757812 331.808594 C 253.527344 329.835938 259.183594 327.53125 264.730469 324.886719 C 277.5 318.742188 289.179688 311.035156 299.808594 301.796875 C 301.324219 299.789062 306.1875 294.125 303.101562 296.519531 C 301.308594 297.890625 297.894531 300.828125 293.613281 304.097656 C 289.34375 307.375 284.210938 310.984375 279.246094 313.972656 C 278.25 314.566406 274.375 317.109375 270.359375 319.371094 C 266.359375 321.664062 262.253906 323.695312 261.3125 324.191406 C 256.363281 326.8125 252.035156 328.710938 248.207031 330.203125 C 244.375 331.695312 241.042969 332.789062 237.988281 333.640625 C 237.222656 333.851562 236.484375 334.070312 235.753906 334.257812 C 235.019531 334.4375 234.300781 334.613281 233.59375 334.785156 C 232.1875 335.148438 230.800781 335.402344 229.441406 335.695312 C 228.761719 335.84375 228.078125 335.960938 227.394531 336.082031 C 226.714844 336.203125 226.03125 336.324219 225.34375 336.445312 C 223.964844 336.671875 222.558594 336.867188 221.101562 337.089844 C 217.003906 337.644531 212.785156 338.0625 208.464844 338.3125 C 207.382812 338.355469 206.300781 338.4375 205.210938 338.464844 C 204.117188 338.496094 203.019531 338.523438 201.917969 338.554688 C 200.8125 338.558594 199.707031 338.558594 198.59375 338.5625 C 197.480469 338.570312 196.359375 338.519531 195.238281 338.503906 C 186.257812 338.246094 177.019531 337.257812 167.796875 335.316406 C 166.402344 335.023438 165.007812 334.699219 163.578125 334.394531 C 162.871094 334.222656 162.152344 334.050781 161.429688 333.878906 C 160.703125 333.703125 159.96875 333.539062 159.230469 333.335938 C 157.75 332.949219 156.222656 332.570312 154.65625 332.113281 C 153.871094 331.886719 153.066406 331.683594 152.257812 331.429688 C 151.445312 331.183594 150.617188 330.929688 149.773438 330.675781 C 146.40625 329.609375 142.773438 328.378906 138.800781 326.835938 C 134.832031 325.273438 130.519531 323.40625 125.820312 321.054688 C 115.777344 316.007812 106.957031 310.234375 99.0625 303.996094 C 91.171875 297.742188 84.207031 291.007812 77.96875 283.777344 C 71.738281 276.539062 66.226562 268.804688 61.398438 260.402344 C 56.578125 252 52.433594 242.925781 49.15625 232.960938 C 49.15625 232.960938 49.695312 234.632812 49.699219 234.644531 " fill-opacity="1" fill-rule="nonzero"/></g><path fill="#6ece9d" d="M 328.773438 273.464844 C 331.679688 269.554688 334.480469 265.390625 337.03125 261.199219 C 339.582031 257.011719 341.882812 252.800781 343.882812 248.851562 C 344.21875 248.164062 343.972656 248.984375 343.539062 250.199219 C 343.082031 251.410156 342.476562 253.011719 342.125 253.941406 C 341.585938 255.027344 341 256.261719 340.371094 257.507812 C 339.722656 258.746094 339.085938 260.023438 338.445312 261.199219 C 337.796875 262.371094 337.199219 263.46875 336.679688 264.367188 C 336.148438 265.261719 335.71875 265.972656 335.449219 266.394531 C 332.621094 270.746094 329.765625 274.65625 326.824219 278.347656 C 323.878906 282.035156 320.851562 285.496094 317.617188 288.902344 C 321.636719 283.980469 325.351562 278.816406 328.773438 273.464844 " fill-opacity="1" fill-rule="nonzero"/><path fill="#6ece9d" d="M 61.367188 120.769531 C 61.085938 121.679688 60.484375 123.246094 60.636719 123.320312 C 60.765625 123.386719 61.636719 121.980469 62.1875 121.230469 C 60.835938 123.773438 59.515625 126.636719 58.285156 129.34375 C 57.703125 130.714844 57.117188 132.035156 56.609375 133.277344 C 56.117188 134.527344 55.621094 135.664062 55.238281 136.679688 C 54.527344 138.476562 53.976562 139.875 53.554688 140.953125 C 53.132812 142.019531 52.792969 142.734375 52.585938 143.199219 C 52.402344 143.585938 52.410156 143.316406 52.472656 142.863281 C 52.539062 142.414062 52.679688 141.78125 52.71875 141.4375 C 53.035156 140.523438 53.320312 139.59375 53.65625 138.6875 L 54.652344 135.953125 C 55.359375 134.148438 56.046875 132.339844 56.820312 130.558594 C 58.335938 126.996094 59.957031 123.472656 61.761719 120.042969 L 61.367188 120.769531 " fill-opacity="1" fill-rule="nonzero"/><path fill="#6ece9d" d="M 78.65625 282.738281 C 77.636719 281.753906 76.996094 281.066406 76.324219 280.402344 C 75.875 279.78125 75.429688 279.125 74.988281 278.46875 C 74.546875 277.816406 74.101562 277.164062 73.675781 276.527344 C 72.855469 275.230469 72.066406 274.027344 71.480469 273.019531 C 71.4375 272.941406 71.578125 273.125 71.832031 273.476562 C 72.09375 273.820312 72.476562 274.320312 72.914062 274.894531 C 73.351562 275.460938 73.824219 276.113281 74.308594 276.714844 C 74.789062 277.320312 75.25 277.898438 75.625 278.363281 C 76.152344 279.1875 76.722656 279.980469 77.238281 280.730469 C 77.761719 281.476562 78.230469 282.175781 78.65625 282.738281 " fill-opacity="1" fill-rule="nonzero"/><path fill="#6ece9d" d="M 61.761719 120.042969 C 61.335938 120.730469 60.726562 121.769531 60.238281 122.589844 C 59.769531 123.417969 59.402344 124.023438 59.417969 123.8125 C 59.4375 123.355469 60.921875 119.898438 61.875 117.789062 C 62.332031 117.238281 63.25 115.808594 63.113281 116.378906 C 62.96875 116.996094 61.804688 119.457031 61.265625 120.957031 C 61.367188 120.769531 61.761719 120.042969 61.761719 120.042969 " fill-opacity="1" fill-rule="nonzero"/><path fill="#6ece9d" d="M 49.15625 232.960938 C 49.15625 232.960938 49.695312 234.632812 49.699219 234.644531 C 49.507812 233.917969 49.25 232.945312 49.03125 232.125 C 48.828125 231.308594 48.6875 230.644531 48.710938 230.5625 C 48.800781 230.316406 49.335938 231.6875 49.71875 232.355469 C 49.972656 233.144531 50.28125 234.101562 50.597656 235.097656 C 50.941406 236.082031 51.296875 237.105469 51.617188 238.03125 C 51.925781 238.957031 52.257812 239.769531 52.472656 240.363281 C 52.582031 240.660156 52.671875 240.902344 52.734375 241.066406 C 52.792969 241.234375 52.824219 241.328125 52.824219 241.328125 C 52.761719 241.578125 52.574219 241.511719 51.847656 240 C 51.734375 239.761719 51.550781 239.359375 51.34375 238.847656 C 51.144531 238.332031 50.902344 237.710938 50.648438 237.050781 C 50.121094 235.722656 49.597656 234.191406 49.15625 232.960938 " fill-opacity="1" fill-rule="nonzero"/><path fill="#6ece9d" d="M 35.066406 211.328125 C 34.773438 204.566406 34.789062 198.390625 35.195312 196.765625 C 35.234375 196.59375 35.3125 197.019531 35.417969 197.824219 C 35.464844 198.230469 35.527344 198.726562 35.59375 199.289062 C 35.667969 199.855469 35.753906 200.484375 35.839844 201.15625 C 35.929688 201.824219 36.011719 202.539062 36.113281 203.261719 C 36.222656 203.984375 36.335938 204.71875 36.445312 205.441406 C 36.648438 206.886719 36.910156 208.269531 37.117188 209.382812 C 37.339844 211.925781 37.875 215.578125 38.34375 218.546875 C 38.597656 220.03125 38.835938 221.339844 38.976562 222.265625 C 39.117188 223.1875 39.207031 223.714844 39.128906 223.636719 C 38.789062 223.296875 38.199219 221.671875 37.441406 219.410156 C 37.070312 218.277344 36.695312 216.976562 36.277344 215.609375 C 35.890625 214.234375 35.480469 212.789062 35.066406 211.328125 " fill-opacity="1" fill-rule="nonzero"/><path fill="#6ece9d" d="M 34.066406 136.894531 C 33.664062 138.046875 33.277344 139.152344 32.917969 140.179688 C 32.554688 141.207031 32.277344 142.167969 32.003906 143 C 31.734375 143.828125 31.507812 144.539062 31.328125 145.09375 C 31.160156 145.644531 31.03125 146.03125 30.949219 146.214844 C 30.851562 146.457031 31.007812 145.523438 31.289062 144.273438 C 31.578125 143.027344 31.941406 141.464844 32.1875 140.410156 C 32.535156 139.371094 32.996094 137.984375 33.386719 136.8125 C 33.808594 135.648438 34.160156 134.703125 34.253906 134.554688 C 34.5625 134.066406 34.203125 135.644531 34.066406 136.894531 " fill-opacity="1" fill-rule="nonzero"/><path fill="#6ece9d" d="M 56.296875 100.792969 C 56.382812 100.859375 56.582031 100.742188 56.527344 101.027344 C 56.4375 101.53125 56.195312 102.277344 56.019531 102.917969 C 55.464844 103.449219 54.621094 104.5 54.492188 104.324219 C 54.460938 104.277344 54.746094 103.695312 55.128906 102.949219 C 55.515625 102.207031 56.023438 101.308594 56.390625 100.613281 C 56.46875 100.480469 56.296875 100.792969 56.296875 100.792969 " fill-opacity="1" fill-rule="nonzero"/><path fill="#6ece9d" d="M 138.039062 349.160156 C 143.304688 350.253906 148.589844 351.085938 153.871094 351.667969 C 148.589844 351.085938 143.304688 350.253906 138.039062 349.160156 " fill-opacity="1" fill-rule="nonzero"/><path fill="#6ece9d" d="M 123.410156 343.308594 C 128.628906 345.664062 133.96875 347.757812 139.402344 349.578125 C 138.445312 349.371094 137.671875 349.1875 136.511719 348.890625 C 134.792969 348.460938 132.839844 347.839844 130.980469 347.296875 C 130.113281 346.867188 129.214844 346.421875 128.335938 345.988281 C 127.898438 345.769531 127.46875 345.554688 127.046875 345.34375 C 126.636719 345.125 126.234375 344.910156 125.847656 344.703125 C 124.808594 344.140625 124.207031 343.769531 123.410156 343.308594 " fill-opacity="1" fill-rule="nonzero"/><g fill="#000000" fill-opacity="1"><g transform="translate(54.755775, 249.566795)"><g><path d="M 124.515625 -131.75 L 124.515625 0 L 99.09375 0 L 99.09375 -56.21875 L 39.34375 -56.21875 L 39.34375 0 L 13.734375 0 L 13.734375 -131.75 L 39.34375 -131.75 L 39.34375 -78.5 L 99.09375 -78.5 L 99.09375 -131.75 Z M 124.515625 -131.75 "/></g></g></g><g fill="#6ece9d" fill-opacity="1"><g transform="translate(192.936714, 249.566795)"><g><path d="M 5.75 -66.796875 C 5.75 -74.835938 7.203125 -82.785156 10.109375 -90.640625 C 13.015625 -98.503906 17.25 -105.523438 22.8125 -111.703125 C 28.382812 -117.890625 35.191406 -122.898438 43.234375 -126.734375 C 51.273438 -130.566406 60.429688 -132.484375 70.703125 -132.484375 C 82.828125 -132.484375 93.3125 -129.820312 102.15625 -124.5 C 111 -119.1875 117.585938 -112.265625 121.921875 -103.734375 L 102.25 -90.1875 C 100.507812 -93.894531 98.398438 -97.015625 95.921875 -99.546875 C 93.453125 -102.085938 90.796875 -104.097656 87.953125 -105.578125 C 85.109375 -107.066406 82.140625 -108.148438 79.046875 -108.828125 C 75.953125 -109.515625 72.921875 -109.859375 69.953125 -109.859375 C 63.523438 -109.859375 57.925781 -108.554688 53.15625 -105.953125 C 48.394531 -103.359375 44.4375 -99.988281 41.28125 -95.84375 C 38.132812 -91.695312 35.753906 -86.992188 34.140625 -81.734375 C 32.535156 -76.484375 31.734375 -71.257812 31.734375 -66.0625 C 31.734375 -60.25 32.660156 -54.648438 34.515625 -49.265625 C 36.367188 -43.878906 38.992188 -39.144531 42.390625 -35.0625 C 45.796875 -30.988281 49.878906 -27.710938 54.640625 -25.234375 C 59.410156 -22.765625 64.640625 -21.53125 70.328125 -21.53125 C 73.296875 -21.53125 76.390625 -21.898438 79.609375 -22.640625 C 82.828125 -23.378906 85.890625 -24.550781 88.796875 -26.15625 C 91.703125 -27.769531 94.390625 -29.84375 96.859375 -32.375 C 99.335938 -34.914062 101.316406 -37.976562 102.796875 -41.5625 L 123.765625 -29.5 C 121.660156 -24.550781 118.660156 -20.191406 114.765625 -16.421875 C 110.867188 -12.648438 106.476562 -9.460938 101.59375 -6.859375 C 96.707031 -4.265625 91.476562 -2.285156 85.90625 -0.921875 C 80.34375 0.429688 74.90625 1.109375 69.59375 1.109375 C 60.1875 1.109375 51.585938 -0.867188 43.796875 -4.828125 C 36.003906 -8.785156 29.289062 -13.945312 23.65625 -20.3125 C 18.03125 -26.6875 13.640625 -33.925781 10.484375 -42.03125 C 7.328125 -50.132812 5.75 -58.390625 5.75 -66.796875 Z M 5.75 -66.796875 "/></g></g></g></svg>