<svg xmlns="http://www.w3.org/2000/svg" viewBox="0 0 100 100"><path fill="#2EC19C" d="M2 2h96v96H2z"/><path fill="#348969" d="M54 31.435a15.94 15.94 0 0 0-12-5.43c-8.82 0-16 7.17-16 16 0 4.492 1.877 8.555 4.872 11.463l-.021-.013.21.21L75.388 98H98V75.434l-43.97-43.97-.03-.03z"/><path fill="#FFF" d="m73.122 66.05-9.2-9.2.79-.78a.996.996 0 0 0 0-1.41c-.4-.39-1.03-.39-1.42 0l-3.608 3.608-5.701-5.701C56.474 49.745 58 46.05 58 42c0-8.823-7.177-16-16-16s-16 7.177-16 16 7.178 16 16 16c4.052 0 7.746-1.527 10.568-4.02l5.702 5.702-3.978 3.978a.996.996 0 0 0 0 1.41c.2.2.45.3.71.3.25 0 .51-.1.71-.3l1.14-1.14 9.2 9.19c.58.59 1.35.88 2.12.88s1.54-.29 2.12-.88l2.83-2.83a3 3 0 0 0 0-4.24zM28 42c0-7.72 6.28-14 14-14s14 6.28 14 14-6.28 14-14 14-14-6.28-14-14z"/><path fill="#FFF" d="M53 41a1 1 0 0 0-1 1c0 5.514-4.486 10-10 10a1 1 0 1 0 0 2c6.618 0 12-5.384 12-12a1 1 0 0 0-1-1z"/></svg>