<svg xmlns="http://www.w3.org/2000/svg" version="1.1" xmlns:xlink="http://www.w3.org/1999/xlink" xmlns:svgjs="http://svgjs.dev/svgjs" viewBox="0 0 800 800"><defs><linearGradient x1="50%" y1="0%" x2="50%" y2="100%" id="cccoil-grad"><stop stop-color="hsl(70, 69%, 60%)" stop-opacity="1" offset="0%"></stop><stop stop-color="hsl(70, 69%, 80%)" stop-opacity="1" offset="100%"></stop></linearGradient></defs><g stroke="url(#cccoil-grad)" fill="none" stroke-linecap="round"><circle r="472.5" cx="400" cy="400" stroke-width="4" stroke-dasharray="2523 2969" transform="rotate(360, 400, 400)" stroke-dashoffset="24" opacity="0.05"></circle><circle r="455" cx="400" cy="400" stroke-width="4" stroke-dasharray="2337 2859" transform="rotate(346, 400, 400)" stroke-dashoffset="24" opacity="0.09"></circle><circle r="437.5" cx="400" cy="400" stroke-width="4" stroke-dasharray="2157 2749" transform="rotate(332, 400, 400)" stroke-dashoffset="24" opacity="0.12"></circle><circle r="420" cx="400" cy="400" stroke-width="4" stroke-dasharray="1984 2639" transform="rotate(318, 400, 400)" stroke-dashoffset="24" opacity="0.16"></circle><circle r="402.5" cx="400" cy="400" stroke-width="4" stroke-dasharray="1819 2529" transform="rotate(305, 400, 400)" stroke-dashoffset="24" opacity="0.20"></circle><circle r="385" cx="400" cy="400" stroke-width="4" stroke-dasharray="1661 2419" transform="rotate(291, 400, 400)" stroke-dashoffset="24" opacity="0.23"></circle><circle r="367.5" cx="400" cy="400" stroke-width="4" stroke-dasharray="1510 2309" transform="rotate(277, 400, 400)" stroke-dashoffset="24" opacity="0.27"></circle><circle r="350" cx="400" cy="400" stroke-width="4" stroke-dasharray="1366 2199" transform="rotate(263, 400, 400)" stroke-dashoffset="24" opacity="0.31"></circle><circle r="332.5" cx="400" cy="400" stroke-width="4" stroke-dasharray="1229 2089" transform="rotate(249, 400, 400)" stroke-dashoffset="24" opacity="0.34"></circle><circle r="315" cx="400" cy="400" stroke-width="4" stroke-dasharray="1100 1979" transform="rotate(235, 400, 400)" stroke-dashoffset="24" opacity="0.38"></circle><circle r="297.5" cx="400" cy="400" stroke-width="4" stroke-dasharray="978 1869" transform="rotate(222, 400, 400)" stroke-dashoffset="24" opacity="0.42"></circle><circle r="280" cx="400" cy="400" stroke-width="4" stroke-dasharray="863 1759" transform="rotate(208, 400, 400)" stroke-dashoffset="24" opacity="0.45"></circle><circle r="262.5" cx="400" cy="400" stroke-width="4" stroke-dasharray="755 1649" transform="rotate(194, 400, 400)" stroke-dashoffset="24" opacity="0.49"></circle><circle r="245" cx="400" cy="400" stroke-width="4" stroke-dasharray="654 1539" transform="rotate(180, 400, 400)" stroke-dashoffset="24" opacity="0.53"></circle><circle r="227.5" cx="400" cy="400" stroke-width="4" stroke-dasharray="561 1429" transform="rotate(166, 400, 400)" stroke-dashoffset="24" opacity="0.56"></circle><circle r="210" cx="400" cy="400" stroke-width="4" stroke-dasharray="475 1319" transform="rotate(152, 400, 400)" stroke-dashoffset="24" opacity="0.60"></circle><circle r="192.5" cx="400" cy="400" stroke-width="4" stroke-dasharray="395 1210" transform="rotate(138, 400, 400)" stroke-dashoffset="24" opacity="0.63"></circle><circle r="175" cx="400" cy="400" stroke-width="4" stroke-dasharray="324 1100" transform="rotate(125, 400, 400)" stroke-dashoffset="24" opacity="0.67"></circle><circle r="157.5" cx="400" cy="400" stroke-width="4" stroke-dasharray="259 990" transform="rotate(111, 400, 400)" stroke-dashoffset="24" opacity="0.71"></circle><circle r="140" cx="400" cy="400" stroke-width="4" stroke-dasharray="201 880" transform="rotate(97, 400, 400)" stroke-dashoffset="24" opacity="0.74"></circle><circle r="122.5" cx="400" cy="400" stroke-width="4" stroke-dasharray="151 770" transform="rotate(83, 400, 400)" stroke-dashoffset="24" opacity="0.78"></circle><circle r="105" cx="400" cy="400" stroke-width="4" stroke-dasharray="108 660" transform="rotate(69, 400, 400)" stroke-dashoffset="24" opacity="0.82"></circle><circle r="87.5" cx="400" cy="400" stroke-width="4" stroke-dasharray="72 550" transform="rotate(55, 400, 400)" stroke-dashoffset="24" opacity="0.85"></circle><circle r="70" cx="400" cy="400" stroke-width="4" stroke-dasharray="43 440" transform="rotate(42, 400, 400)" stroke-dashoffset="24" opacity="0.89"></circle><circle r="52.5" cx="400" cy="400" stroke-width="4" stroke-dasharray="22 330" transform="rotate(28, 400, 400)" stroke-dashoffset="24" opacity="0.93"></circle><circle r="35" cx="400" cy="400" stroke-width="4" stroke-dasharray="7 220" transform="rotate(14, 400, 400)" stroke-dashoffset="24" opacity="0.96"></circle><circle r="17.5" cx="400" cy="400" stroke-width="4" stroke-dasharray="0 110" stroke-dashoffset="24" opacity="1.00"></circle></g></svg>