<svg xmlns="http://www.w3.org/2000/svg" version="1.1" xmlns:xlink="http://www.w3.org/1999/xlink" xmlns:svgjs="http://svgjs.dev/svgjs" viewBox="0 0 1422 800" opacity="0.46"><defs><linearGradient x1="50%" y1="0%" x2="50%" y2="100%" id="oooscillate-grad"><stop stop-color="hsl(105, 69%, 40%)" stop-opacity="1" offset="0%"></stop><stop stop-color="hsl(105, 69%, 60%)" stop-opacity="1" offset="100%"></stop></linearGradient></defs><g stroke-width="1.5" stroke="url(#oooscillate-grad)" fill="none" stroke-linecap="round"><path d="M 0 728 Q 355.5 -100 711 400 Q 1066.5 900 1422 728" stroke-dasharray="47 113" opacity="1.00"></path><path d="M 0 700 Q 355.5 -100 711 400 Q 1066.5 900 1422 700" stroke-dasharray="16 87" opacity="0.96"></path><path d="M 0 672 Q 355.5 -100 711 400 Q 1066.5 900 1422 672" stroke-dasharray="34 42" opacity="0.92"></path><path d="M 0 644 Q 355.5 -100 711 400 Q 1066.5 900 1422 644" stroke-dasharray="102 53" opacity="0.89"></path><path d="M 0 616 Q 355.5 -100 711 400 Q 1066.5 900 1422 616" stroke-dasharray="70 0" opacity="0.85"></path><path d="M 0 588 Q 355.5 -100 711 400 Q 1066.5 900 1422 588" stroke-dasharray="56 116" opacity="0.81"></path><path d="M 0 560 Q 355.5 -100 711 400 Q 1066.5 900 1422 560" stroke-dasharray="31 34" opacity="0.77"></path><path d="M 0 532 Q 355.5 -100 711 400 Q 1066.5 900 1422 532" stroke-dasharray="8 6" opacity="0.73"></path><path d="M 0 504 Q 355.5 -100 711 400 Q 1066.5 900 1422 504" stroke-dasharray="3 120" opacity="0.70"></path><path d="M 0 476 Q 355.5 -100 711 400 Q 1066.5 900 1422 476" stroke-dasharray="94 48" opacity="0.66"></path><path d="M 0 448 Q 355.5 -100 711 400 Q 1066.5 900 1422 448" stroke-dasharray="65 77" opacity="0.62"></path><path d="M 0 420 Q 355.5 -100 711 400 Q 1066.5 900 1422 420" stroke-dasharray="70 91" opacity="0.58"></path><path d="M 0 392 Q 355.5 -100 711 400 Q 1066.5 900 1422 392" stroke-dasharray="56 77" opacity="0.54"></path><path d="M 0 364 Q 355.5 -100 711 400 Q 1066.5 900 1422 364" stroke-dasharray="57 67" opacity="0.51"></path><path d="M 0 336 Q 355.5 -100 711 400 Q 1066.5 900 1422 336" stroke-dasharray="93 21" opacity="0.47"></path><path d="M 0 308 Q 355.5 -100 711 400 Q 1066.5 900 1422 308" stroke-dasharray="85 4" opacity="0.43"></path><path d="M 0 280 Q 355.5 -100 711 400 Q 1066.5 900 1422 280" stroke-dasharray="90 97" opacity="0.39"></path><path d="M 0 252 Q 355.5 -100 711 400 Q 1066.5 900 1422 252" stroke-dasharray="106 6" opacity="0.35"></path><path d="M 0 224 Q 355.5 -100 711 400 Q 1066.5 900 1422 224" stroke-dasharray="20 57" opacity="0.32"></path><path d="M 0 196 Q 355.5 -100 711 400 Q 1066.5 900 1422 196" stroke-dasharray="33 97" opacity="0.28"></path><path d="M 0 168 Q 355.5 -100 711 400 Q 1066.5 900 1422 168" stroke-dasharray="110 0" opacity="0.24"></path><path d="M 0 140 Q 355.5 -100 711 400 Q 1066.5 900 1422 140" stroke-dasharray="37 31" opacity="0.20"></path><path d="M 0 112 Q 355.5 -100 711 400 Q 1066.5 900 1422 112" stroke-dasharray="8 33" opacity="0.16"></path><path d="M 0 84 Q 355.5 -100 711 400 Q 1066.5 900 1422 84" stroke-dasharray="80 131" opacity="0.13"></path><path d="M 0 56 Q 355.5 -100 711 400 Q 1066.5 900 1422 56" stroke-dasharray="43 1" opacity="0.09"></path></g></svg>