<svg xmlns="http://www.w3.org/2000/svg" viewBox="0 0 100 100"><path fill="#DC6E79" d="M2 2h96v96H2z"/><path fill="#A1334B" d="M73.33 34.056l-23-8a.937.937 0 0 0-.66 0l-23 8c-.4.14-.67.52-.67.94 0 .27.11.53.29.7.02.03.03.04.05.05l6.08 6.08-5.09-1.77a.999.999 0 0 0-1.28.61c-.13.37-.02.77.25 1.05l.06.05.03.03 6.03 6.03-5.09-1.77c-.53-.18-1.09.09-1.28.61-.13.37-.02.77.25 1.05l6.1 6.1-5.07-1.76a.999.999 0 0 0-1.28.61c-.13.37-.02.77.25 1.05l.06.05.03.03 6.03 6.03-5.09-1.77c-.53-.18-1.09.09-1.28.61-.13.37-.02.77.25 1.05l6.1 6.1-5.07-1.76a.999.999 0 0 0-1.28.61c-.13.37-.02.77.25 1.05l.02.01L58.592 98H98V58.587l-24.27-24.27a.957.957 0 0 0-.4-.26z"/><path fill="#FFF" d="M72.672 52.06l-22.67 7.88-22.67-7.88a.999.999 0 00-1.28.61c-.18.52.1 1.09.62 1.28l23 8c.11.03.22.05.33.05s.22-.02.33-.05l23-8c.52-.19.8-.76.61-1.28a.988.988 0 00-1.27-.61zM26.672 35.95l23 8c.11.03.22.05.33.05s.22-.02.33-.05l23-8a1.001 1.001 0 100-1.89l-23-8a.937.937 0 00-.66 0l-23 8a1.001 1.001 0 000 1.89z"/><path fill="#FFF" d="M72.672 40.06l-22.67 7.88-22.67-7.88a.999.999 0 00-1.28.61c-.18.52.1 1.09.62 1.28l23 8c.11.03.22.05.33.05s.22-.02.33-.05l23-8c.52-.19.8-.76.61-1.28a.988.988 0 00-1.27-.61zM72.672 64.06l-22.67 7.88-22.67-7.88a.999.999 0 00-1.28.61c-.18.52.1 1.09.62 1.28l23 8c.11.03.22.05.33.05s.22-.02.33-.05l23-8c.52-.19.8-.76.61-1.28a.988.988 0 00-1.27-.61z"/><path fill="#FFF" d="M72.672 58.06l-22.67 7.88-22.67-7.88c-.53-.18-1.09.09-1.28.61-.18.52.1 1.09.62 1.28l23 8c.11.03.22.05.33.05s.22-.02.33-.05l23-8c.52-.19.8-.76.61-1.28a.988.988 0 00-1.27-.61zM72.672 46.06l-22.67 7.88-22.67-7.88c-.53-.18-1.09.09-1.28.61-.18.52.1 1.09.62 1.28l23 8c.11.03.22.05.33.05s.22-.02.33-.05l23-8c.52-.19.8-.76.61-1.28a.988.988 0 00-1.27-.61z"/></svg>