<svg xmlns="http://www.w3.org/2000/svg" enable-background="new 0 0 128 128" viewBox="0 0 128 128"><path fill="#1d75b9" d="M85.7,108.8c-0.7-6.2-1.4-12.3-2-18.5c0-0.5-0.1-0.9-0.2-1.3c-0.3-1.8-0.8-3-1.7-4c-0.5-0.2-1.1-0.4-1.6-0.6
		c0,0-0.1,0-0.1,0c-2.2-0.7-4.4-1.4-6.7-2c-2.9-0.9-5.9-1.7-8.8-2.5c-1.4-0.4-2.8-0.7-4.1-1.1c-1.4-0.4-3.2-0.5-4.4-1.5
		c0,0-0.1,0-0.1-0.1c-0.9-0.7-1.2-1.9-1.4-3.1c-0.1-0.9-0.1-1.7,0-2.5c0.2-2.1,0.9-4.3,2.3-5.9l0,0c0.3-0.4,0.6-0.8,0.9-1.2
		c1.6-2.3,2.8-5,3.5-7.7c0-0.1,0-0.1,0.1-0.2c2.3-1.2,3.8-3.6,4.1-6.6c0-0.1,0-0.1,0-0.2c0-0.3,0.1-0.5,0.1-0.8
		c0.1-0.7,0.2-1.3,0.2-2c0-0.4,0-1,0-1.6l0-0.1c0.1-1.9-1-4.2-3.1-4.7c-0.1,0-0.1,0-0.1,0c0.1-0.5,0.2-1,0.3-1.5l0-0.1
		c0.1-0.7,0.3-1.5,0.3-2.3c0.1-1.6,0.2-3.7,0.1-5.9c-0.3-7-5.8-13.5-12.9-13.9c-1.6-0.3-3.2-0.4-4.6-0.5c-0.5,0-1.1,0-1.6-0.1
		c-0.5,0-1.1,0-1.6,0.1c-1.3,0.1-2.9,0.2-4.6,0.5c-7.1,0.5-12.6,7-12.9,13.9c-0.1,2.2,0,4.3,0.1,5.9c0.1,0.8,0.2,1.5,0.3,2.3l0,0.1
		c0.1,0.5,0.2,1,0.3,1.5c0,0-0.1,0-0.1,0c-2.1,0.5-3.2,2.7-3.1,4.7l0,0.1c0,0.6,0,1.1,0,1.6c0,0.7,0.2,1.4,0.2,2
		c0,0.3,0.1,0.5,0.1,0.8c0,0.1,0,0.1,0,0.2c0.4,3,1.8,5.4,4.1,6.6c0.1,0.1,0.1,0.1,0.1,0.2c0.7,2.7,1.8,5.4,3.5,7.7
		c0.3,0.4,0.6,0.8,0.9,1.2l0,0c1.4,1.7,2.1,3.8,2.3,5.9c0.1,0.8,0.1,1.6,0,2.5c-0.1,1.2-0.5,2.3-1.4,3.1c0,0-0.1,0-0.1,0.1
		c-1.2,0.9-3,1.1-4.4,1.5c-1.4,0.4-2.8,0.7-4.1,1.1c-3,0.8-5.9,1.6-8.8,2.5c-2.2,0.7-4.5,1.3-6.7,2c0,0-0.1,0-0.1,0
		C8.1,84.6,7.5,84.8,7,85c-1,0.9-1.4,2.2-1.7,4c-0.1,0.4-0.1,0.8-0.2,1.3c-0.7,6.1-1.3,12.3-2,18.5c-0.2,1.5,1,2.8,2.5,2.8
		c6.4,0,22.6,0,38.8,0s32.4,0,38.8,0C84.7,111.6,85.9,110.3,85.7,108.8z"/><path fill="#2d3e50" d="M122.4,111c-5.3,0-17.4,0-30.7,0c0.2-1,0.3-2,0.2-3v0c-0.6-5.5-1.3-11.3-2-18.3c-0.1-0.6-0.1-1.2-0.2-1.7
		c-0.3-2-1-5-3.5-7.5l-0.8-0.8l-1.1-0.5c-0.6-0.3-1.3-0.5-2.1-0.8c-0.1,0-0.2-0.1-0.3-0.1c-2.2-0.8-4.5-1.4-6.7-2l-0.2,0
		c-0.7-0.2-1.3-0.4-2-0.6c0.3-0.6,0.5-1.3,0.6-2.1c0.1-0.9,0.1-1.7,0-2.5c-0.1-1.2-0.4-2.4-0.8-3.5c-1.7-0.4-3.5-1-5.2-1.7
		c-0.9-0.4-1.8-0.8-2.7-1.3c0.7-1.3,1.2-2.7,1.7-4.1c2.7-2.3,4.5-5.7,5-9.7l0-0.1c0,0,0,0,0-0.1l0.1-0.9c0.1-0.7,0.2-1.5,0.3-2.4
		l0-0.1c0-0.5,0-1.1,0-1.8c0.1-2.9-0.9-5.6-2.7-7.6c0-0.2,0-0.4,0.1-0.6c0.1-1.6,0.3-4.1,0.2-6.6c-0.1-2.5-0.7-4.9-1.6-7.2
		c3.3-3.8,7.8-5.9,13.5-6.5c4.6-0.5,9.1,0,13.3,2.1c1.9,0.9,3.5,2.1,4.9,3.4c3.3,3.1,5.3,7.2,6.5,11.9c1.1,4.4,1.2,8.7,3.3,12.6
		c1,1.9,2.1,3.7,3.1,5.5c0.5,0.8,0.5,1.5,0,2.3c-1.1,1.9-2.3,3.5-3.7,5c-2.2,2.3-4.8,4.1-7.8,5.6c-2.1,1-4.3,1.8-6.5,2.3
		c-0.5,1.1-0.8,2.4-0.9,3.6c-0.1,0.8-0.1,1.6,0,2.5c0.1,1.2,0.5,2.3,1.4,3.1c0,0,0.1,0,0.1,0.1c1.2,0.9,3,1.1,4.4,1.5
		c1.4,0.4,2.8,0.7,4.1,1.1c2.9,0.8,5.9,1.6,8.8,2.5c2.2,0.7,4.4,1.3,6.6,2c0,0,0.1,0,0.1,0c0.6,0.2,1.1,0.4,1.6,0.6
		c1,0.9,1.4,2.2,1.7,4c0.1,0.4,0.1,0.8,0.2,1.3c0.7,6.1,1.3,12.2,2,18.4C125.1,109.7,123.9,111,122.4,111z"/></svg>